PathFileType	4	(X/Y/Z)	C:/Users/beibeiliu/ov580/test_trc/capture2\sequence.33_training_dense_left.trc
DataRate	CameraRate	NumFrames	NumMarkers	Units	OrigDataRate	OrigDataStartFrame	OrigNumFrames
120	120	20	19	mm	120	1	336
Frame#	Time	ThumbCMC			ThumbMCP			ThumbIP			ThumbTip			IndexMCP			IndexPIP			IndexTip			MiddleMCP			MiddlePIP			MiddleTip			RingMCP			RingPIP			RingTip			PinkyMCP			PinkyPIP			PinkyTip			BackHand1			BackHand2			BackHand3	
		X0	Y0	Z0	X1	Y1	Z1	X2	Y2	Z2	X3	Y3	Z3	X4	Y4	Z4	X5	Y5	Z5	X6	Y6	Z6	X7	Y7	Z7	X8	Y8	Z8	X9	Y9	Z9	X10	Y10	Z10	X11	Y11	Z11	X12	Y12	Z12	X13	Y13	Z13	X14	Y14	Z14	X15	Y15	Z15	X16	Y16	Z16	X17	Y17	Z17	X18	Y18	Z18	
0	0	-110.387	30.4721	34.3447	-94.1767	14.5435	19.436	-72.4656	8.4195	2.95985	-56.3839	1.84686	-15.3779	-114.671	42.3485	-41.4055	-107.271	38.0966	-65.1598	-103.725	35.5245	-95.1853	-135.454	44.6825	-52.3534	-135.438	41.2006	-78.8924	-136.241	35.886	-107.325	-155.511	40.7597	-53.1363	-158.08	37.2368	-74.0265	-159.877	31.2659	-100.207	-181.357	34.0473	-42.8592	-184.789	28.3377	-60.5716	-187.117	26.9746	-86.458	-161.977	54.7091	-4.08109	-167.918	57.9106	30.1665	-134.318	56.0404	16.2984	
1	0.00833333	-112.081	28.7618	32.5257	-93.3509	14.4251	18.7965	-77.9428	7.61658	0.629348	-58.0771	0.807278	-15.2085	-115.541	41.1771	-42.3714	-109.122	37.0632	-68.9922	-106.661	33.2191	-95.722	-135.206	43.6972	-54.0623	-135.379	40.5156	-75.6744	-137.303	34.8061	-106.776	-160.57	40.5661	-50.8086	-157.598	35.5492	-73.6055	-159.414	29.8968	-104.504	-179.333	33.0255	-38.0686	-185.731	27.0083	-64.9735	-190.266	27.1617	-84.7242	-165.287	52.8649	0.0794818	-166.705	57.6919	28.3335	-133.637	53.7741	15.4509	
2	0.0166667	-112.912	27.6983	34.58	-96.3418	13.7224	20.8091	-74.0982	6.27518	-0.98353	-62.1113	0.892684	-12.5624	-110.131	39.8131	-44.7954	-109.737	36.2617	-66.5617	-103.532	33.1046	-90.9619	-137.898	44.1483	-50.6515	-135.933	39.8304	-76.6407	-134.784	34.7649	-104.617	-155.609	40.0217	-48.2184	-157.769	34.0459	-77.6637	-160.592	29.3061	-103.033	-180.742	34.1912	-39.4549	-185.913	26.7869	-62.5217	-188.519	24.1911	-84.6486	-165.576	53.7093	-0.357372	-165.954	56.026	28.5164	-135.476	53.4403	18.262	
3	0.025	-109.061	27.7073	30.4847	-96.358	13.3153	17.4827	-76.6804	6.28913	0.117116	-61.9697	0.474605	-10.7531	-113.234	39.7301	-44.6915	-105.399	36.2179	-69.3944	-109.406	33.4226	-90.7839	-135.838	43.5508	-49.3342	-136.356	39.4476	-78.9107	-137.778	34.4301	-105.693	-155.192	39.6731	-51.1074	-158.857	34.0648	-76.5718	-158.692	29.7483	-98.1723	-176.459	33.3088	-37.9932	-181.582	28.1828	-62.49	-188.883	26.2707	-85.177	-163.573	52.3152	-3.17551	-169.589	56.7582	26.5445	-133.586	53.5312	15.286	
4	0.0333333	-114.339	27.5279	33.303	-94.8334	12.9994	16.2444	-74.7622	6.02416	2.51402	-59.0418	0.054218	-11.1689	-110.936	40.0751	-40.9449	-107.673	36.9816	-64.588	-104.762	34.3543	-89.7852	-133.159	44.2151	-54.8235	-133.481	38.3138	-80.8494	-135.188	34.9579	-104.02	-160.061	38.9849	-50.5739	-157.494	34.1709	-77.9494	-160.521	28.1811	-102.816	-181.824	32.8991	-40.8316	-180.399	27.3529	-61.0211	-188.868	25.848	-85.4596	-164.281	54.0226	-2.80994	-163.745	56.9227	25.8998	-134.484	52.5489	15.1238	
5	0.0416667	-112.934	27.3026	29.6744	-96.0371	13.3727	17.0439	-75.8713	6.4657	-1.5236	-58.2826	-0.0154317	-12.0152	-110.288	39.6061	-39.3858	-110.095	36.0447	-68.7915	-105.688	33.5486	-89.8168	-137.171	43.2963	-53.7386	-134.15	39.345	-78.0063	-138.047	34.2957	-105.157	-160.341	39.2833	-50.4416	-160.415	34.1979	-77.7728	-161.888	28.9166	-99.8958	-179.331	33.7344	-40.3172	-180.772	27.5218	-59.069	-189.169	23.6054	-84.2538	-161.365	53.3978	1.28493	-166.433	56.2156	27.715	-131.366	52.1114	17.2076	
6	0.05	-110.481	27.7857	30.7176	-93.31	13.2561	17.2871	-78.4067	5.46825	2.53158	-61.1758	0.616729	-12.1819	-113.631	39.8579	-44.8162	-106.99	35.7394	-64.2178	-107.836	33.1753	-90.2876	-138.13	43.2946	-54.2013	-134.268	39.3041	-75.6246	-136.039	34.8148	-106.841	-155.746	39.4608	-47.6956	-159.31	34.664	-74.7472	-157.704	29.1146	-103.579	-181.754	33.0395	-40.4113	-183.699	26.2033	-64.3638	-189.363	24.1725	-85.6977	-160.658	51.1452	1.9203	-168.227	56.5123	29.1906	-134.692	54.267	17.9833	
7	0.0583333	-111.274	28.8087	34.9119	-94.3906	13.402	19.8332	-72.9606	6.78099	0.0226257	-57.6746	0.75982	-10.6792	-112.489	40.5976	-43.8934	-105.671	35.1854	-69.3199	-108.412	33.5489	-91.033	-136.347	43.0102	-54.2203	-135.352	38.8381	-76.939	-132.611	33.5678	-109.481	-155.488	39.5756	-49.3855	-161.719	34.1894	-75.7297	-160.674	28.5955	-100.368	-181.342	33.4992	-43.1054	-182.703	26.8324	-61.0278	-188.963	23.2007	-88.6205	-166.009	51.8717	0.698335	-167.876	56.0907	26.9366	-131.603	54.9528	16.9996	
8	0.0666667	-110.88	27.5578	31.8051	-94.279	12.7817	16.5468	-77.2916	6.25933	-0.0801578	-57.9105	0.460325	-15.6211	-112.381	40.3261	-41.7334	-106.569	35.6068	-70.2988	-102.411	31.9521	-94.869	-135.574	43.4549	-50.8536	-137.284	38.7809	-80.7806	-134.816	33.6012	-107.141	-157.19	39.5446	-51.2658	-160.85	34.4501	-75.2921	-157.018	28.0614	-102.786	-181.399	33.0049	-38.405	-182.519	26.9647	-59.9637	-189.771	23.926	-86.5376	-162.928	50.6649	-0.677514	-168.764	55.146	29.7365	-133.629	52.5369	17.6603	
9	0.075	-113.328	28.1082	33.0595	-90.8787	12.8779	18.6227	-73.3719	6.82361	3.59605	-61.6695	-0.293996	-13.0385	-111.039	40.0706	-42.6601	-109.428	36.738	-65.8013	-106.334	33.9078	-92.4922	-133.636	43.8841	-52.998	-132.675	39.7385	-78.2376	-133.501	33.7467	-105.526	-153.631	40.1031	-52.0827	-161.467	35.7216	-73.715	-158.557	28.606	-100.959	-176.668	33.0169	-37.6841	-183.607	26.4404	-62.664	-187.608	23.3271	-85.6092	-165.577	51.8346	-0.479687	-167.653	56.143	25.6992	-132.654	53.2759	18.5579	
10	0.0833333	-110.525	28.7487	31.6832	-92.9966	13.6991	18.6747	-74.3366	6.45363	1.20465	-57.5538	0.564832	-13.4399	-113.159	39.8082	-43.8131	-106.427	36.2318	-66.2449	-106.572	33.5734	-94.5127	-134.544	43.8961	-54.554	-133.38	39.2487	-77.0055	-136.979	34.1592	-105.439	-159.937	39.5962	-50.3124	-160.567	35.7436	-73.892	-157.607	29.6722	-102.376	-176.573	33.2049	-38.0314	-182.688	27.7549	-62.2913	-187.237	23.271	-85.1905	-165.087	52.0895	0.0087367	-166.615	55.1415	25.0481	-134.12	54.3095	17.129	
11	0.0916667	-114.371	27.5837	33.9501	-90.9059	13.3936	21.3756	-72.9559	6.82294	3.40668	-61.3147	0.604751	-13.0937	-110.872	40.0499	-43.5806	-105.526	36.2737	-68.3531	-106.444	34.2778	-90.5943	-134.088	44.0046	-51.3053	-134.922	40.2771	-79.0533	-134.58	34.6276	-108.893	-157.869	40.0212	-48.1719	-156.67	35.7116	-73.0129	-159.338	30.5878	-99.0293	-174.769	34.1306	-43.3087	-179.93	27.9364	-60.0926	-188.867	24.0011	-86.8936	-163.618	54.0113	-1.91857	-168.405	57.1525	26.6617	-130.487	51.9027	16.3089	
12	0.1	-112.918	28.4976	29.8479	-95.4435	12.5796	18.1893	-72.2574	5.77303	3.5068	-57.4251	0.832195	-11.3525	-109.388	39.9146	-44.2945	-103.2	36.3229	-66.9465	-104.615	34.1729	-89.2514	-131.495	43.4124	-52.9726	-133.597	39.2461	-80.2536	-135.019	34.9566	-105.05	-158.54	40.3092	-49.7514	-154.598	35.1984	-76.0825	-157.403	29.4355	-100.598	-178.011	32.9655	-38.8864	-181.032	26.9633	-59.2968	-186.133	24.3201	-87.6198	-158.827	50.9024	-2.46454	-165.583	55.8522	29.3726	-132.477	51.7071	18.3894	
13	0.108333	-111.846	27.2174	33.7874	-90.4323	12.967	18.5169	-71.3509	6.71777	1.189	-56.9452	-0.0889338	-13.5765	-113.637	39.8845	-41.9302	-106.242	37.0428	-65.0527	-104.28	33.5829	-93.6164	-133.033	44.3262	-55.0878	-131.73	39.3723	-80.0452	-132.384	34.6346	-104.92	-155.44	39.8969	-52.1023	-156.83	35.092	-73.0295	-156.358	29.3032	-99.3387	-174.55	33.5574	-43.6621	-181.545	25.5871	-65.2015	-184.338	23.4776	-87.6183	-159.789	50.6273	-2.90538	-164.791	57.2141	26.3536	-132.292	54.2891	19.6797	
14	0.116667	-109.78	28.4022	33.0745	-92.3358	13.4648	21.0986	-71.9447	6.23758	3.70219	-59.1654	0.228686	-13.1944	-113.226	39.8602	-45.1583	-107.625	36.1157	-67.325	-104.683	32.1338	-93.2033	-132.246	43.5493	-51.7806	-131.11	39.3052	-78.6447	-133.878	33.3893	-110.468	-155.204	39.4789	-51.2428	-156.949	34.8122	-75.6003	-155.613	28.7279	-98.8406	-179.235	33.1219	-43.5266	-182.597	27.1791	-60.8457	-187.548	23.4245	-89.77	-164.186	52.2904	-0.870003	-164.375	54.3093	25.9583	-133.315	53.3658	16.4898	
15	0.125	-109.791	27.6435	32.4156	-92.1103	12.923	17.5316	-70.1901	6.70073	-0.774506	-57.804	-0.592519	-10.923	-110.788	39.4072	-43.3486	-103.323	35.4127	-67.3244	-105.455	32.3691	-96.3478	-135.172	43.8693	-51.2683	-129.945	39.1909	-81.5399	-132.042	34.4413	-106.899	-156.499	39.4632	-49.6976	-155.561	34.1342	-73.8276	-157.342	28.4137	-100.151	-179.564	32.5936	-42.0919	-180.187	26.1938	-62.081	-184.246	23.3187	-88.1255	-161.044	50.385	-3.34154	-164.574	54.9062	26.4935	-130.32	54.4177	14.0335	
16	0.133333	-109.08	27.8685	33.7142	-89.0906	12.2439	15.6174	-72.4842	5.53436	0.900067	-55.4483	-0.511078	-15.1997	-111.634	38.8443	-41.7442	-106.39	33.8464	-70.3478	-104.536	32.2447	-93.4313	-136.272	42.173	-50.3867	-134.038	38.7687	-79.938	-133.224	33.4123	-106.602	-152.791	37.5852	-51.1372	-157.276	33.7762	-76.6658	-156.748	28.2357	-104.376	-177.457	30.8456	-43.1735	-180.479	25.1254	-61.5084	-184.652	21.5994	-85.6877	-161.988	50.7684	0.572546	-162.992	55.7163	24.5757	-131.879	53.736	13.0518	
17	0.141667	-107.298	27.4639	31.9088	-92.4113	11.581	19.5134	-72.9692	4.43557	2.4383	-55.3343	-1.62307	-12.3016	-108.801	38.537	-40.8251	-106.323	34.1217	-70.2361	-104.117	31.9892	-92.7399	-134.288	41.9008	-55.032	-131.351	37.4375	-78.8584	-133.5	31.2873	-110.872	-156.043	37.4561	-52.0034	-157.651	33.3795	-74.1886	-152.275	26.3318	-101.88	-175.627	30.5058	-40.3876	-181.865	23.8391	-64.1504	-185.194	21.0271	-83.9108	-159.89	50.1873	-2.28355	-165.7	54.2236	23.8609	-133.999	52.8569	14.5364	
18	0.15	-106.689	27.3885	30.7887	-93.671	11.9094	19.3316	-69.9615	4.01224	-0.174438	-58.6087	-1.56931	-14.3592	-110.749	37.6445	-40.4815	-104.626	35.1236	-67.7504	-106.125	32.0621	-93.5408	-133.708	41.8618	-51.5897	-134.348	36.7257	-82.5719	-134.237	31.4139	-105.447	-155.898	36.6867	-49.5393	-158.799	31.8085	-76.5217	-155.094	25.6505	-104.194	-176.858	29.0399	-40.0429	-179.193	23.1374	-64.4196	-182.999	21.0184	-84.3832	-159.73	48.6661	-0.0596797	-166.505	54.8207	26.9598	-135.279	50.2512	15.8753	
19	0.158333	-109.81	26.2064	31.347	-89.6254	11.6179	19.7814	-71.8773	4.74468	1.99516	-55.4237	-1.32891	-11.425	-112.416	38.6956	-45.3765	-106.272	34.905	-65.4913	-105.515	30.9555	-93.1417	-134.465	41.104	-54.9711	-129.834	35.7015	-79.4003	-133.071	29.7238	-106.008	-157.824	34.9707	-53.5089	-156.825	29.9413	-73.5533	-154.83	23.8948	-102.878	-178.645	28.1833	-38.3807	-182.221	22.4348	-60.7931	-186.452	18.113	-84.9596	-160.846	49.4921	-2.86795	-165.661	50.7495	29.3304	-130.344	50.666	17.6669	
